<svg width="771" height="39" viewBox="0 0 771 39" fill="none" xmlns="http://www.w3.org/2000/svg">
<path d="M441.293 23.8346L444.595 26.0327C443.523 27.609 440.96 30.3133 436.53 30.3133C431.028 30.3133 426.931 26.0617 426.931 20.6531C426.931 14.8975 431.071 10.9929 436.067 10.9929C441.091 10.9929 443.552 14.9843 444.348 17.139L444.783 18.2381L431.839 23.5888C432.823 25.5266 434.358 26.51 436.53 26.51C438.702 26.51 440.208 25.4398 441.293 23.8346ZM431.144 20.3494L439.788 16.763C439.31 15.5627 437.891 14.7095 436.197 14.7095C434.04 14.7095 431.042 16.6184 431.144 20.3494Z" fill="white" fill-opacity="0.6"/>
<path d="M420.69 1.14471H424.86V29.4311H420.69V1.14471Z" fill="white" fill-opacity="0.6"/>
<path d="M414.117 11.7449H418.142V28.925C418.142 36.0545 413.929 38.9901 408.948 38.9901C404.257 38.9901 401.433 35.8375 400.377 33.2779L404.069 31.745C404.735 33.3213 406.342 35.1868 408.948 35.1868C412.148 35.1868 414.117 33.2056 414.117 29.5035V28.1152H413.972C413.016 29.2721 411.192 30.3133 408.876 30.3133C404.04 30.3133 399.609 26.105 399.609 20.682C399.609 15.2301 404.04 10.9785 408.876 10.9785C411.178 10.9785 413.016 12.0052 413.972 13.1332H414.117V11.7449ZM414.406 20.682C414.406 17.2691 412.133 14.7818 409.237 14.7818C406.313 14.7818 403.851 17.2691 403.851 20.682C403.851 24.0515 406.313 26.4955 409.237 26.4955C412.133 26.51 414.406 24.0515 414.406 20.682Z" fill="white" fill-opacity="0.6"/>
<path d="M376.718 20.6097C376.718 26.1773 372.375 30.2699 367.046 30.2699C361.718 30.2699 357.375 26.1629 357.375 20.6097C357.375 15.0132 361.718 10.9351 367.046 10.9351C372.375 10.9351 376.718 15.0132 376.718 20.6097ZM372.49 20.6097C372.49 17.139 369.971 14.7529 367.046 14.7529C364.122 14.7529 361.602 17.139 361.602 20.6097C361.602 24.0515 364.122 26.4666 367.046 26.4666C369.971 26.4666 372.49 24.0515 372.49 20.6097Z" fill="white" fill-opacity="0.6"/>
<path d="M397.843 20.6531C397.843 26.2207 393.499 30.3133 388.171 30.3133C382.843 30.3133 378.499 26.2207 378.499 20.6531C378.499 15.0566 382.843 10.9929 388.171 10.9929C393.499 10.9929 397.843 15.0421 397.843 20.6531ZM393.6 20.6531C393.6 17.1824 391.081 14.7963 388.156 14.7963C385.232 14.7963 382.712 17.1824 382.712 20.6531C382.712 24.0949 385.232 26.51 388.156 26.51C391.096 26.51 393.6 24.0805 393.6 20.6531Z" fill="white" fill-opacity="0.6"/>
<path d="M341.477 26.0761C335.41 26.0761 330.661 21.1882 330.661 15.1289C330.661 9.06955 335.41 4.18161 341.477 4.18161C344.749 4.18161 347.138 5.46867 348.905 7.11726L351.815 4.21053C349.353 1.85333 346.067 0.0601196 341.477 0.0601196C333.166 0.0601196 326.173 6.82804 326.173 15.1289C326.173 23.4297 333.166 30.1976 341.477 30.1976C345.965 30.1976 349.353 28.7225 352.003 25.9749C354.725 23.2561 355.565 19.4383 355.565 16.3436C355.565 15.3747 355.449 14.3769 355.319 13.6393H341.477V17.6596H351.337C351.047 20.1759 350.251 21.8968 349.078 23.0681C347.659 24.4998 345.415 26.0761 341.477 26.0761Z" fill="white" fill-opacity="0.6"/>
<path d="M659.591 30.5882H655.111V19.4829H652.059V15.8672H655.111V13.2944C655.111 10.2456 656.461 8.05908 660.928 8.05908C661.873 8.05908 663.356 8.24848 663.356 8.24848V11.6058H661.798C660.211 11.6058 659.591 12.086 659.591 13.4137V15.8672H663.297L662.967 19.4829H659.591L659.591 30.5882ZM669.869 15.5783C669.804 15.5783 669.737 15.5806 669.67 15.5823C665.516 15.5823 663.616 18.6895 663.616 23.1002C663.616 28.6565 666.081 30.8803 669.703 30.8803C671.775 30.8803 673.136 30.013 673.963 28.3945V30.5897H678.224V15.8688H673.963V18.1326C673.288 16.6761 671.888 15.5955 669.869 15.5783ZM670.952 19.0568C672.697 19.0568 673.744 20.267 673.744 22.3254L673.748 24.4277C673.748 25.8151 672.883 27.4382 670.952 27.4382C667.984 27.4382 668.063 24.2506 668.063 23.189C668.063 19.6178 669.645 19.0568 670.952 19.0568ZM679.945 23.23C679.945 21.4412 679.859 15.5879 687.527 15.5879C690.605 15.5879 691.89 16.5612 691.89 16.5612L690.857 19.7477C690.857 19.7477 689.574 19.0447 687.901 19.0447C685.759 19.0447 684.392 20.2798 684.392 22.4529L684.394 24.0111C684.394 26.0992 685.713 27.4931 687.905 27.4931C689.429 27.4931 690.834 26.7835 690.834 26.7835L691.864 29.9034C691.864 29.9034 690.689 30.8829 687.548 30.8829C680.247 30.8829 679.945 25.6314 679.945 23.23H679.945ZM716.872 15.5823C721.026 15.5823 722.957 18.6895 722.957 23.1002C722.957 28.6565 720.491 30.8803 716.87 30.8803C714.798 30.8803 713.266 30.0132 712.439 28.3945V30.5897L708.232 30.5881V8.50668L712.699 8.11926V17.9332C713.343 16.2162 715.462 15.5823 716.873 15.5823H716.872ZM715.62 19.0568C713.876 19.0568 712.699 20.267 712.699 22.3254L712.695 24.4277C712.692 25.8151 713.51 27.4382 715.62 27.4382C718.589 27.4382 718.509 24.2506 718.509 23.189C718.509 19.6178 716.928 19.0568 715.62 19.0568ZM699.641 15.5945C694.93 15.5945 692.442 18.149 692.442 22.6885V23.532C692.442 29.4239 695.935 30.9409 700.099 30.9409C704.147 30.9409 705.979 29.815 705.979 29.815L705.143 26.8168C705.143 26.8168 702.988 27.7287 700.635 27.7287C698.195 27.7287 697.146 27.1104 696.877 24.779H706.336V22.3737C706.336 17.4494 703.545 15.5944 699.641 15.5944L699.641 15.5945ZM699.754 18.5967C701.385 18.5967 702.442 19.5912 702.384 21.8976H696.886C696.981 19.4701 698.121 18.5968 699.754 18.5968V18.5967ZM731.863 15.5743C727.025 15.5743 724.478 18.2856 724.478 23.1445C724.478 29.8112 728.869 30.8843 731.871 30.8843C736.267 30.8843 739.192 28.5309 739.192 23.2051C739.192 17.6619 735.903 15.5743 731.863 15.5743ZM731.803 19.0689C733.93 19.0689 734.773 20.6522 734.773 22.4546V24.0042C734.773 26.1875 733.593 27.4504 731.794 27.4504C730.112 27.4504 728.93 26.2691 728.93 24.0042V22.4546C728.93 20.039 730.337 19.0689 731.803 19.0689ZM748.09 15.5743C743.252 15.5743 740.705 18.2856 740.705 23.1445C740.705 29.8112 745.096 30.8843 748.099 30.8843C752.494 30.8843 755.419 28.5309 755.419 23.2051C755.419 17.6619 752.13 15.5743 748.09 15.5743ZM748.03 19.0689C750.157 19.0689 751 20.6522 751 22.4546V24.0042C751 26.1875 749.82 27.4504 748.021 27.4504C746.339 27.4504 745.157 26.2691 745.157 24.0042V22.4546C745.157 20.039 746.564 19.0689 748.03 19.0689ZM757.107 30.5882V8.50668L761.587 8.11926V22.9197L766.031 15.8672H770.762L766.126 23.1715L770.941 30.5882H766.196L761.587 23.3867V30.5882H757.107Z" fill="white" fill-opacity="0.6"/>
<path d="M230.413 13.7852C230.413 10.3481 230.473 7.14814 230.651 4.18518L221.548 5.9037V6.73333L222.44 6.85185C223.095 6.91111 223.511 7.14814 223.749 7.5037C223.987 7.91851 224.166 8.51111 224.285 9.4C224.404 11.1185 224.523 15.0296 224.464 21.1926C224.464 27.2963 224.404 31.1481 224.285 32.6296C227.557 33.3407 230.116 33.637 232.02 33.637C235.59 33.637 238.386 32.6296 240.41 30.5556C242.433 28.5407 243.504 25.6963 243.504 22.2C243.504 19.4148 242.73 17.1037 241.183 15.2667C239.636 13.4296 237.672 12.5407 235.352 12.5407C233.805 12.5407 232.199 12.9556 230.413 13.7852ZM230.592 32.037C230.473 30.1407 230.354 24.4518 230.354 15.1481C230.889 14.9704 231.604 14.8518 232.496 14.8518C233.924 14.8518 235.054 15.563 235.887 17.0444C236.72 18.5259 237.137 20.3037 237.137 22.5556C237.137 25.3407 236.661 27.5926 235.709 29.4889C234.757 31.3259 233.567 32.2741 232.079 32.2741C231.604 32.1556 231.127 32.0963 230.592 32.037ZM187.395 4.77777H163.595V5.96296L164.845 6.08148C165.797 6.25925 166.451 6.61481 166.868 7.14814C167.284 7.74074 167.522 8.68888 167.582 9.99259C168.058 16.3926 168.058 22.3778 167.582 27.8889C167.463 29.1926 167.225 30.1407 166.868 30.7333C166.451 31.3259 165.797 31.6815 164.845 31.8L163.595 31.9778V33.163H178.946V31.9778L177.34 31.8593C176.388 31.7407 175.733 31.3259 175.317 30.7926C174.9 30.2 174.662 29.2518 174.603 27.9481C174.424 25.5778 174.305 22.8518 174.305 19.8296L177.518 19.8889C179.244 19.9481 180.434 21.2518 181.028 23.8593H182.219V14.2H181.028C180.434 16.7481 179.303 18.0518 177.518 18.1111L174.305 18.1704C174.305 12.837 174.424 9.04444 174.603 6.73333H179.303C182.635 6.73333 184.896 8.86666 186.205 13.1333L187.633 12.7185L187.395 4.77777ZM184.598 23.0296C184.598 26.1111 185.491 28.6593 187.217 30.6741C188.942 32.6889 191.5 33.637 194.713 33.637C197.926 33.637 200.545 32.6296 202.449 30.5556C204.353 28.5407 205.245 25.9926 205.245 22.9111C205.245 19.8296 204.352 17.2815 202.627 15.2667C200.901 13.2518 198.343 12.3037 195.13 12.3037C191.917 12.3037 189.299 13.3111 187.395 15.3852C185.491 17.4 184.598 19.9481 184.598 23.0296ZM197.867 16.2741C198.581 17.9926 198.878 20.2444 198.878 22.9704C198.878 29.2518 197.569 32.3333 195.011 32.3333C193.702 32.3333 192.691 31.4444 191.976 29.6667C191.263 27.8889 190.965 25.637 190.965 22.9704C190.965 16.7481 192.274 13.6667 194.833 13.6667C196.141 13.6074 197.153 14.4963 197.867 16.2741ZM248.145 30.6741C250.108 32.6296 252.607 33.637 255.582 33.637C257.426 33.637 259.033 33.2815 260.461 32.5111C261.889 31.8 263.019 30.9111 263.793 29.8444L263.198 29.1333C261.889 30.1407 260.401 30.6148 258.676 30.6148C256.296 30.6148 254.451 29.8444 253.202 28.2444C251.893 26.6444 251.298 24.6296 251.417 22.0222H264.15C264.15 19.1778 263.436 16.8667 261.949 15.0296C260.461 13.2518 258.379 12.363 255.701 12.363C252.369 12.363 249.811 13.4296 247.966 15.5037C246.121 17.5778 245.229 20.1259 245.229 23.1481C245.229 26.2296 246.181 28.7185 248.145 30.6741ZM252.547 15.8C253.202 14.3778 254.035 13.6667 255.165 13.6667C256.95 13.6667 257.843 15.9185 257.843 20.4815L251.536 20.6C251.595 18.8222 251.893 17.2222 252.547 15.8ZM280.155 13.4296C278.549 12.7185 276.526 12.3037 274.086 12.3037C271.587 12.3037 269.624 12.9556 268.136 14.2C266.649 15.4444 265.875 16.9852 265.875 18.8222C265.875 20.4222 266.351 21.6667 267.244 22.5556C268.136 23.4444 269.564 24.2148 271.409 24.8667C273.075 25.4593 274.265 26.0518 274.86 26.5852C275.455 27.1778 275.812 27.8296 275.812 28.7185C275.812 29.5481 275.514 30.3185 274.86 30.9111C274.265 31.563 273.432 31.8593 272.361 31.8593C269.743 31.8593 267.779 29.963 266.411 26.1704L265.399 26.4667L265.637 32.3926C267.779 33.2222 270.159 33.637 272.777 33.637C275.514 33.637 277.597 33.0444 279.144 31.8C280.691 30.6148 281.465 28.8963 281.465 26.763C281.465 25.3407 281.107 24.1556 280.334 23.2667C279.56 22.3778 278.311 21.6074 276.526 20.8963C274.562 20.1852 273.194 19.5333 272.48 18.9407C271.766 18.3481 271.409 17.637 271.409 16.7481C271.409 15.8593 271.647 15.1481 272.182 14.5556C272.718 13.963 273.372 13.7259 274.205 13.7259C276.585 13.7259 278.311 15.4444 279.382 18.8222L280.393 18.5259L280.155 13.4296ZM222.916 12.8963C222.083 12.4815 221.191 12.3037 220.179 12.3037C219.168 12.3037 218.157 12.7185 217.026 13.5481C215.896 14.3778 215.062 15.5037 214.408 17.0444L214.467 12.3037L205.424 14.0815V14.9111L206.316 14.9704C207.446 15.0889 208.101 15.9778 208.22 17.5778C208.577 21.2518 208.577 25.163 208.22 29.3111C208.101 30.9111 207.446 31.7407 206.316 31.9185L205.424 32.037V33.163H218.037V32.037L216.431 31.9185C215.3 31.8 214.646 30.9111 214.527 29.3111C214.17 25.8741 214.111 22.2 214.408 18.4074C214.765 17.8148 215.539 17.4593 216.729 17.3407C217.918 17.2222 219.287 17.5778 220.715 18.4074L222.916 12.8963Z" fill="white" fill-opacity="0.6"/>
<path d="M22.9391 17.0814H12.9309C12.6727 17.0814 12.4632 17.2957 12.4632 17.5594V22.5577C12.4632 22.8214 12.6727 23.0359 12.9309 23.0359H16.8352V29.2459C16.8352 29.2459 15.9585 29.5511 13.5348 29.5511C10.6754 29.5511 6.68084 28.4839 6.68084 19.5117C6.68084 10.5376 10.8403 9.35684 14.7453 9.35684C18.1255 9.35684 19.5817 9.96482 20.5083 10.2577C20.7994 10.3489 21.0687 10.0527 21.0687 9.78876L22.1852 4.95944C22.1852 4.83607 22.1443 4.68737 22.0064 4.5863C21.6302 4.3122 19.3345 3 13.5348 3C6.85345 3 0 5.90357 0 19.8616C0 33.8201 7.84668 35.9001 14.4588 35.9001C19.9336 35.9001 23.2548 33.5103 23.2548 33.5103C23.3917 33.433 23.4066 33.2377 23.4066 33.148V17.5594C23.4066 17.2957 23.1973 17.0814 22.9391 17.0814ZM74.4902 4.74716C74.4902 4.48117 74.2838 4.26661 74.0257 4.26661H68.3904C68.133 4.26661 67.9237 4.48117 67.9237 4.74716C67.9237 4.74842 67.9251 15.8713 67.9251 15.8713H59.1413V4.74716C59.1413 4.48117 58.9339 4.26661 58.6763 4.26661H53.0412C52.7848 4.26661 52.5757 4.48117 52.5757 4.74716V34.8678C52.5757 35.1336 52.7848 35.3499 53.0412 35.3499H58.6763C58.9339 35.3499 59.1413 35.1336 59.1413 34.8678V21.9842H67.9251C67.9251 21.9842 67.9098 34.8668 67.9098 34.8678C67.9098 35.1336 68.1188 35.3499 68.3765 35.3499H74.0252C74.2833 35.3499 74.4897 35.1336 74.4902 34.8678V4.74716ZM33.555 8.77421C33.555 6.70153 31.9281 5.02657 29.9211 5.02657C27.916 5.02657 26.2879 6.70153 26.2879 8.77421C26.2879 10.8446 27.916 12.5241 29.9211 12.5241C31.9281 12.5241 33.555 10.8446 33.555 8.77421ZM33.1078 28.5297V14.6259C33.1078 14.362 32.8993 14.1461 32.6416 14.1461H27.0242C26.7665 14.1461 26.5359 14.4177 26.5359 14.6817V34.6016C26.5359 35.187 26.893 35.361 27.3553 35.361H32.4164C32.9717 35.361 33.1078 35.0826 33.1078 34.5922V28.5297ZM96.0279 14.1461H90.4357C90.1793 14.1461 89.9705 14.362 89.9705 14.6277V29.3968C89.9705 29.3968 88.55 30.4585 86.5335 30.4585C84.5173 30.4585 83.9821 29.524 83.9821 27.5073V14.6277C83.9821 14.362 83.7738 14.1461 83.5171 14.1461H77.8416C77.5854 14.1461 77.3756 14.362 77.3756 14.6277V28.4826C77.3756 34.4726 80.644 35.9381 85.1402 35.9381C88.8287 35.9381 91.8027 33.8566 91.8027 33.8566C91.8027 33.8566 91.9443 34.9534 92.0083 35.0837C92.0725 35.2134 92.2394 35.3443 92.4197 35.3443L96.0303 35.3281C96.2865 35.3281 96.4963 35.1118 96.4963 34.8473L96.4946 14.6277C96.4946 14.362 96.2855 14.1461 96.0279 14.1461ZM108.912 30.4699C106.973 30.4096 105.657 29.5106 105.657 29.5106V19.972C105.657 19.972 106.955 19.1594 108.547 19.014C110.561 18.8298 112.501 19.4512 112.501 24.358C112.501 29.5324 111.626 30.5535 108.912 30.4699ZM111.118 13.4992C107.942 13.4992 105.781 14.9466 105.781 14.9466V4.74716C105.781 4.48117 105.573 4.26661 105.316 4.26661H99.6653C99.4083 4.26661 99.1995 4.48117 99.1995 4.74716V34.8678C99.1995 35.1336 99.4083 35.3499 99.666 35.3499H103.587C103.763 35.3499 103.897 35.2569 103.996 35.094C104.093 34.9322 104.234 33.7053 104.234 33.7053C104.234 33.7053 106.545 35.9422 110.919 35.9422C116.055 35.9422 119 33.2813 119 23.9968C119 14.7123 114.296 13.4992 111.118 13.4992ZM49.3267 14.0945H45.0996C45.0996 14.0945 45.0931 8.39144 45.0931 8.39017C45.0931 8.17434 44.9843 8.06643 44.74 8.06643H38.9795C38.7555 8.06643 38.6352 8.167 38.6352 8.38688V14.2817C38.6352 14.2817 35.7485 14.9935 35.5534 15.051C35.3589 15.1085 35.2158 15.2917 35.2158 15.51V19.2143C35.2158 19.4808 35.4242 19.6956 35.6818 19.6956H38.6352V28.607C38.6352 35.226 43.1806 35.8763 46.2478 35.8763C47.6493 35.8763 49.3257 35.4165 49.6025 35.3121C49.7699 35.2493 49.8671 35.0723 49.8671 34.8802L49.8718 30.8053C49.8718 30.5396 49.6521 30.3245 49.4046 30.3245C49.1583 30.3245 48.5282 30.4268 47.8794 30.4268C45.8032 30.4268 45.0996 29.4407 45.0996 28.1642C45.0996 26.8887 45.0993 19.6956 45.0993 19.6956H49.3267C49.5844 19.6956 49.793 19.4808 49.793 19.2143V14.5745C49.793 14.3088 49.5844 14.0945 49.3267 14.0945Z" fill="white" fill-opacity="0.6"/>
<path d="M531.005 21.3992L530.295 23.3759H530.236C530.118 22.9302 529.901 22.2519 529.547 21.438L525.744 12.0387H522.021V27.0194H524.483V17.7752C524.483 17.1938 524.483 16.5349 524.464 15.7209C524.444 15.3139 524.404 15.0039 524.385 14.7713H524.444C524.562 15.3527 524.7 15.779 524.799 16.0504L529.369 26.9806H531.103L535.635 15.9535C535.733 15.7015 535.832 15.1976 535.93 14.7713H535.989C535.93 15.8759 535.891 16.8643 535.871 17.4651V26.9612H538.491V12H534.906L531.005 21.3992ZM540.974 16.2248H543.535V26.9612H540.974V16.2248ZM542.274 11.6899C541.841 11.6899 541.486 11.8449 541.191 12.1163C540.895 12.3876 540.737 12.7364 540.737 13.1628C540.737 13.5697 540.895 13.9186 541.191 14.1899C541.486 14.4612 541.841 14.5969 542.274 14.5969C542.708 14.5969 543.082 14.4418 543.358 14.1899C543.653 13.9186 543.811 13.5697 543.811 13.1628C543.811 12.7558 543.653 12.407 543.358 12.1163C543.102 11.8449 542.727 11.6899 542.274 11.6899ZM552.618 16.1279C552.145 16.031 551.652 15.9728 551.179 15.9728C550.017 15.9728 548.953 16.2248 548.067 16.7287C547.18 17.2325 546.471 17.9302 546.018 18.8023C545.545 19.6938 545.308 20.7209 545.308 21.9031C545.308 22.9302 545.545 23.8411 545.998 24.6744C546.451 25.4883 547.081 26.1473 547.929 26.593C548.736 27.0387 549.682 27.2713 550.746 27.2713C551.968 27.2713 553.012 27.0194 553.839 26.5542L553.859 26.5349V24.2093L553.76 24.2868C553.386 24.5581 552.953 24.7907 552.519 24.9263C552.066 25.0814 551.652 25.1589 551.298 25.1589C550.273 25.1589 549.465 24.8682 548.894 24.2287C548.303 23.6085 548.007 22.7558 548.007 21.6899C548.007 20.5852 548.303 19.7132 548.914 19.0736C549.525 18.4341 550.332 18.1046 551.317 18.1046C552.145 18.1046 552.992 18.3759 553.76 18.9186L553.859 18.9961V16.5349L553.839 16.5155C553.504 16.3798 553.13 16.2248 552.618 16.1279ZM561.07 16.0504C560.439 16.0504 559.848 16.2442 559.336 16.6511C558.903 17 558.607 17.5039 558.351 18.1046H558.331V16.2248H555.77V26.9612H558.331V21.4767C558.331 20.5465 558.528 19.7713 558.962 19.2093C559.395 18.6279 559.947 18.3372 560.617 18.3372C560.853 18.3372 561.09 18.3953 561.385 18.4341C561.661 18.5116 561.858 18.5891 561.996 18.686L562.094 18.7635V16.2442L562.035 16.2248C561.858 16.1085 561.503 16.0504 561.07 16.0504ZM568.044 15.9922C566.251 15.9922 564.813 16.5155 563.808 17.5426C562.784 18.5697 562.291 19.9845 562.291 21.7674C562.291 23.4341 562.804 24.7907 563.789 25.779C564.774 26.748 566.114 27.2519 567.788 27.2519C569.542 27.2519 570.941 26.7287 571.945 25.6821C572.97 24.6356 573.462 23.2403 573.462 21.5155C573.462 19.8101 572.99 18.4535 572.024 17.4651C571.098 16.4767 569.739 15.9922 568.044 15.9922ZM570.093 24.248C569.621 24.8488 568.872 25.1395 567.946 25.1395C567.02 25.1395 566.271 24.8488 565.739 24.2093C565.207 23.6085 564.951 22.7364 564.951 21.6318C564.951 20.4883 565.227 19.6163 565.739 18.9961C566.271 18.3759 567 18.0659 567.926 18.0659C568.832 18.0659 569.542 18.3566 570.054 18.9573C570.566 19.5581 570.842 20.4302 570.842 21.5736C570.803 22.7364 570.586 23.6473 570.093 24.248ZM579.176 20.6821C578.368 20.3527 577.856 20.1008 577.62 19.8876C577.423 19.6938 577.324 19.4225 577.324 19.0736C577.324 18.7829 577.442 18.4922 577.738 18.2984C578.033 18.1046 578.368 18.0077 578.861 18.0077C579.294 18.0077 579.747 18.0852 580.181 18.2015C580.614 18.3178 581.008 18.4922 581.324 18.7248L581.422 18.8023V16.438L581.363 16.4186C581.067 16.3023 580.673 16.186 580.201 16.0891C579.728 16.0116 579.294 15.9728 578.94 15.9728C577.718 15.9728 576.713 16.2635 575.925 16.9031C575.137 17.5039 574.763 18.3178 574.763 19.2674C574.763 19.7713 574.842 20.217 575.019 20.5852C575.196 20.9535 575.452 21.3023 575.807 21.593C576.162 21.8643 576.674 22.1744 577.383 22.4651C577.974 22.717 578.427 22.9108 578.703 23.0659C578.979 23.2209 579.156 23.3953 579.294 23.531C579.393 23.686 579.452 23.8798 579.452 24.1318C579.452 24.8488 578.9 25.1977 577.777 25.1977C577.344 25.1977 576.891 25.1201 576.359 24.9457C575.827 24.7713 575.334 24.5194 574.92 24.2287L574.822 24.1511V26.6124L574.881 26.6318C575.255 26.8062 575.708 26.9225 576.26 27.0581C576.812 27.155 577.304 27.2325 577.738 27.2325C579.058 27.2325 580.141 26.9418 580.91 26.3023C581.698 25.6821 582.112 24.8876 582.112 23.8604C582.112 23.1434 581.915 22.5039 581.481 22.0194C580.91 21.5542 580.201 21.0697 579.176 20.6821ZM588.869 15.9922C587.076 15.9922 585.638 16.5155 584.633 17.5426C583.629 18.5697 583.116 19.9845 583.116 21.7674C583.116 23.4341 583.629 24.7907 584.614 25.779C585.599 26.748 586.939 27.2519 588.613 27.2519C590.367 27.2519 591.766 26.7287 592.77 25.6821C593.795 24.6356 594.287 23.2403 594.287 21.5155C594.287 19.8101 593.815 18.4535 592.849 17.4651C591.923 16.4767 590.564 15.9922 588.869 15.9922ZM590.899 24.248C590.426 24.8488 589.677 25.1395 588.751 25.1395C587.805 25.1395 587.076 24.8488 586.545 24.2093C586.013 23.6085 585.756 22.7364 585.756 21.6318C585.756 20.4883 586.032 19.6163 586.545 18.9961C587.076 18.3759 587.805 18.0659 588.731 18.0659C589.618 18.0659 590.347 18.3566 590.859 18.9573C591.372 19.5581 591.647 20.4302 591.647 21.5736C591.647 22.7364 591.391 23.6473 590.899 24.248ZM607.98 18.2984V16.2248H605.399V13.0465L605.321 13.0659L602.877 13.7829L602.818 13.8023V16.2248H598.957V14.8682C598.957 14.248 599.114 13.7635 599.39 13.4535C599.666 13.1434 600.08 12.9883 600.592 12.9883C600.947 12.9883 601.321 13.0659 601.735 13.2403L601.833 13.2984V11.1085L601.774 11.0891C601.42 10.9728 600.947 10.8953 600.336 10.8953C599.568 10.8953 598.898 11.0697 598.287 11.3604C597.676 11.6899 597.223 12.1356 596.888 12.7364C596.553 13.3178 596.376 13.9767 596.376 14.7325V16.2248H594.583V18.279H596.376V26.9612H598.957V18.2984H602.818V23.8217C602.818 26.0891 603.902 27.2325 606.069 27.2325C606.424 27.2325 606.798 27.1744 607.153 27.1163C607.527 27.0387 607.803 26.9418 607.961 26.8643L607.98 26.8449V24.7713L607.882 24.8488C607.724 24.9457 607.586 25.0232 607.35 25.0814C607.153 25.1395 606.975 25.1589 606.838 25.1589C606.325 25.1589 605.971 25.0426 605.715 24.7519C605.478 24.4806 605.36 24.0349 605.36 23.3759V18.2984H607.98Z" fill="white" fill-opacity="0.6"/>
<path d="M489 7H501.077V18.8798H489V7Z" fill="white" fill-opacity="0.6"/>
<path d="M502.338 7H514.416V18.8798H502.338V7Z" fill="white" fill-opacity="0.6"/>
<path d="M489 20.1202H501.077V32H489V20.1202Z" fill="white" fill-opacity="0.6"/>
<path d="M502.338 20.1202H514.416V32H502.338V20.1202Z" fill="white" fill-opacity="0.6"/>
</svg>
